<svg width="202" height="202" viewBox="0 0 202 202" fill="none" xmlns="http://www.w3.org/2000/svg">
<g clip-path="url(#clip0_24_0)">
<path d="M171.134 2.33009C169.152 0.678108 165.683 -0.891273 162.296 0.595509C155.854 4.97326 184.928 22.8972 170.226 82.8641C167.17 95.254 159.653 88.8112 150.732 86.0855C130.413 79.7254 108.69 78.3212 87.6268 76.091C80.1929 75.265 72.5938 74.6868 65.4077 72.7044C57.8086 70.6395 57.4782 70.2265 59.378 63.2882C64.6643 56.5976 62.5167 47.4291 62.2689 43.6296C66.2337 34.8741 67.7205 27.275 64.5817 23.3928C56.074 13.3158 54.6698 39.417 43.6016 39.4996C38.563 39.004 35.2591 39.417 34.0201 36.6913C31.7899 31.9831 28.3207 25.8708 23.8604 22.9798C17.0047 18.4369 15.6005 30.9919 18.4914 42.8862C17.5829 50.1549 18.2437 55.1109 21.9606 60.3972C23.8604 63.0404 24.2734 66.3443 24.8516 69.4831C25.9254 74.9346 26.5862 81.7077 26.5862 87.2419C26.5862 90.3806 27.1643 100.127 27.6599 103.266C29.9727 117.473 30.7161 120.281 41.3714 130.689C45.8317 135.067 52.6048 138.866 55.4132 144.731C57.4782 149.191 59.2954 154.064 61.1951 158.525C64.9121 167.115 67.2249 175.871 68.7943 185.039C69.7028 189.995 57.8912 191.069 59.8736 197.925C61.4429 203.541 76.476 203.459 77.3845 197.016C77.9627 193.382 79.6973 186.774 80.5233 181.735C84.9011 162.82 78.4583 155.469 83.4969 138.288C84.8185 132.093 109.02 144.07 112.324 146.3C119.014 150.843 126.201 154.477 132.974 158.855C143.464 165.628 136.195 171.575 129.422 177.11C125.788 180.083 125.788 180.248 121.162 179.175C117.362 178.431 114.389 180.744 113.563 183.47C112.324 187.352 117.941 189.995 121.823 189.499C133.469 188.26 149.576 176.118 154.615 165.628C158.001 169.593 156.597 173.31 154.697 178.349C153.871 180.496 152.963 182.561 152.219 184.709C150.567 189.582 148.998 188.26 145.033 189.169C139.169 191.069 141.812 199.659 148.255 198.668C150.485 198.338 158.91 197.346 159.818 193.464C160.231 191.73 161.966 188.178 162.792 186.443C164.609 182.148 174.686 159.681 170.226 155.386C167.913 153.238 166.096 151.008 164.361 148.365C161.636 144.07 162.875 143.574 165.27 139.94C167.748 136.14 169.978 131.68 172.126 127.715C176.999 118.299 173.365 110.204 177.66 97.6493C190.958 57.4236 184.35 13.3984 171.134 2.33009Z" fill="#FB5607"/>
</g>
<defs>
<clipPath id="clip0_24_0">
<rect width="202" height="202" fill="white"/>
</clipPath>
</defs>
</svg>
