<svg width="209" height="209" viewBox="0 0 209 209" fill="none" xmlns="http://www.w3.org/2000/svg">
<g clip-path="url(#clip0_20_51)">
<path d="M208.74 64.9917C208.34 63.9334 207.517 63.0904 206.467 62.6673L188.84 55.5557C187.745 49.8611 183.42 45.3005 177.854 43.8627L176.903 32.9093C176.764 31.3065 175.688 29.9384 174.164 29.4245C172.638 28.9106 170.955 29.3494 169.874 30.5413L165.35 35.5313L162.554 25.7455C162.072 24.0586 160.558 22.8744 158.804 22.8132C157.049 22.7543 155.458 23.8284 154.86 25.4784L133.968 83.1143L56.6459 86.7241C56.6135 86.7254 56.5807 86.7268 56.5488 86.7286C40.6764 87.6817 25.6465 79.1907 18.2584 65.0947C17.2207 63.1151 14.7749 62.3508 12.7963 63.3889C10.8167 64.4266 10.0533 66.8719 11.0905 68.851C17.6555 81.3771 29.2509 90.2143 42.562 93.4904C42.0894 93.9077 41.6142 94.3474 41.1376 94.8172C36.0595 99.8265 29.9981 108.982 29.1174 124.532L11.599 132.226C10.5757 132.676 9.784 133.528 9.41129 134.582L0.231975 160.536C-0.418585 162.376 0.33673 164.419 2.02809 165.392L6.43589 167.929C7.05723 168.287 7.7541 168.469 8.45501 168.469C8.92708 168.469 9.40095 168.386 9.85414 168.219C10.9799 167.804 11.8638 166.911 12.2667 165.78L18.7853 147.481L34.5129 146.179L29.7337 152.671C29.071 153.571 28.8103 154.705 29.013 155.803L34.0058 182.877C34.3596 184.796 36.0334 186.189 37.9851 186.189H43.0709C44.2709 186.189 45.4092 185.656 46.178 184.735C46.9468 183.813 47.2669 182.598 47.052 181.418L43.5726 162.307L77.3406 138.941C77.4449 138.87 77.2435 139.023 77.3406 138.941C80.539 136.255 82.8607 133.296 84.5215 130.254C101.525 133.239 125.279 137.483 140.597 139.964C140.802 140.058 140.376 139.905 140.597 139.964L172.338 183.361C173.123 184.434 174.35 185.019 175.606 185.019C176.233 185.019 176.867 184.874 177.456 184.57L181.176 182.654C182.13 182.163 182.85 181.313 183.177 180.291C183.504 179.269 183.412 178.158 182.921 177.204L166.464 145.247L183.332 148.679L182.926 154.52C182.823 156.005 183.544 157.428 184.803 158.223L187.285 159.789C187.939 160.201 188.689 160.414 189.445 160.414C189.859 160.414 190.275 160.35 190.678 160.221C191.817 159.857 192.737 159.006 193.19 157.899L198.988 143.725C199.413 142.686 199.387 141.517 198.917 140.498C198.448 139.479 197.575 138.701 196.51 138.35L166.04 127.865C166.069 127.731 175.13 85.913 175.13 85.913C176.821 86.1949 178.529 86.3433 180.249 86.3433C192.099 86.3433 202.951 79.4056 208.568 68.2377C209.077 67.2271 209.139 66.05 208.74 64.9917Z" fill="#FB5607"/>
</g>
<defs>
<clipPath id="clip0_20_51">
<rect width="209" height="209" fill="white"/>
</clipPath>
</defs>
</svg>
