<svg width="35" height="37" viewBox="0 0 35 37" fill="none" xmlns="http://www.w3.org/2000/svg">
<path d="M24.4742 19.3201C24.1554 19.3192 23.8395 19.3815 23.5449 19.5035C23.2503 19.6255 22.9829 19.8048 22.758 20.0308L22.0102 20.7788L21.2625 20.0311C21.0371 19.8057 20.7695 19.6269 20.4751 19.5049C20.1806 19.3829 19.865 19.3201 19.5462 19.3201C19.2275 19.3201 18.9119 19.3829 18.6174 19.5048C18.3229 19.6268 18.0553 19.8056 17.8299 20.0309C17.6045 20.2563 17.4257 20.5239 17.3037 20.8184C17.1818 21.1128 17.119 21.4285 17.119 21.7472C17.1189 22.0659 17.1817 22.3816 17.3037 22.676C17.4257 22.9705 17.6044 23.2381 17.8298 23.4635L21.5777 27.2115C21.6345 27.2683 21.7019 27.3133 21.7761 27.344C21.8503 27.3748 21.9298 27.3906 22.0101 27.3906C22.0904 27.3906 22.1699 27.3748 22.244 27.344C22.3182 27.3133 22.3856 27.2683 22.4424 27.2115L26.1906 23.4635C26.5301 23.124 26.7612 22.6916 26.8549 22.2207C26.9485 21.7499 26.9005 21.2618 26.7167 20.8183C26.533 20.3748 26.2219 19.9958 25.8227 19.7291C25.4236 19.4624 24.9543 19.32 24.4742 19.3201ZM25.3259 22.5987L22.0102 25.9145L18.6945 22.5987C18.4738 22.3718 18.3513 22.0671 18.3534 21.7506C18.3556 21.434 18.4823 21.131 18.7062 20.9072C18.93 20.6834 19.233 20.5566 19.5495 20.5545C19.8661 20.5523 20.1708 20.6749 20.3977 20.8956L21.5777 22.0757C21.6345 22.1325 21.7019 22.1775 21.7761 22.2083C21.8503 22.239 21.9298 22.2548 22.0101 22.2548C22.0904 22.2548 22.1699 22.239 22.244 22.2083C22.3182 22.1775 22.3856 22.1325 22.4424 22.0757L23.6228 20.8956C23.8495 20.6742 24.1544 20.5511 24.4713 20.553C24.7883 20.5548 25.0917 20.6816 25.3158 20.9057C25.5399 21.1298 25.6666 21.4332 25.6685 21.7501C25.6704 22.067 25.5473 22.3719 25.3259 22.5987Z" fill="#FB5607"/>
<path d="M33.9384 9.8677L17.4308 0.0853858C17.3361 0.0293109 17.2281 -0.000187411 17.1181 8.95947e-07C17.0081 0.000189203 16.9002 0.0300572 16.8057 0.0864558L0.298055 9.93915C0.207194 9.99338 0.131963 10.0703 0.0797192 10.1623C0.0274752 10.2543 6.58434e-06 10.3583 0 10.4641V36.1427C0 36.3048 0.0644147 36.4603 0.179073 36.575C0.293732 36.6897 0.449243 36.7541 0.611394 36.7541H0.612694L33.628 36.6837C33.7899 36.6833 33.9451 36.6188 34.0595 36.5042C34.1739 36.3895 34.2381 36.2342 34.2381 36.0723V10.3937C34.2381 10.2876 34.2104 10.1833 34.1579 10.091C34.1054 9.99882 34.0297 9.92185 33.9384 9.8677ZM12.2279 19.6157V21.3988C12.2279 21.5124 12.2595 21.6237 12.3192 21.7202C12.3789 21.8168 12.4643 21.8949 12.5658 21.9456L14.6964 23.0109C15.0928 23.2075 15.4387 23.4927 15.7073 23.8444C15.9759 24.196 16.16 24.6047 16.2454 25.0389L16.5196 26.4099C16.5432 26.5283 16.6014 26.637 16.6868 26.7223L16.7488 26.7843C16.9618 26.9969 17.0888 27.2807 17.1055 27.5813C17.1221 27.8818 17.0272 28.1779 16.839 28.4127L16.6419 28.6591L16.4448 28.9055C16.1983 29.2136 15.8897 29.4662 15.539 29.6468C15.1884 29.8275 14.8035 29.9321 14.4096 29.9539C14.0158 29.9757 13.6217 29.9142 13.2533 29.7734C12.8848 29.6326 12.5501 29.4156 12.2712 29.1366L12.0491 28.9145C11.9344 28.7998 11.7789 28.7354 11.6167 28.7354C11.4546 28.7354 11.2991 28.7998 11.1844 28.9145C11.0697 29.0291 11.0053 29.1846 11.0053 29.3468C11.0053 29.509 11.0697 29.6645 11.1844 29.7791L11.4066 30.0013C11.7806 30.3754 12.2248 30.6722 12.7136 30.8746C13.2024 31.077 13.7263 31.1812 14.2553 31.1811C14.7844 31.181 15.3083 31.0766 15.797 30.874C16.2857 30.6714 16.7297 30.3745 17.1037 30.0002L17.8644 30.9519C17.9437 31.051 18.0519 31.123 18.174 31.1578L18.3385 31.2049C19.294 31.4814 20.1475 32.0318 20.7935 32.7883C21.4394 33.5447 21.8494 34.4739 21.9728 35.4609H7.7884L7.55149 34.6906C6.92531 32.6605 6.74812 30.5185 7.03219 28.413C7.31625 26.3076 8.05479 24.2891 9.1966 22.4975L9.68693 21.7271C9.69821 21.7093 9.70856 21.6911 9.71796 21.6723L9.85942 21.3895C10.0876 20.9289 10.4209 20.5285 10.8323 20.2203C11.2437 19.9122 11.7217 19.7051 12.2279 19.6157ZM18.6974 30.0355L17.898 29.0364C18.2131 28.5799 18.3635 28.0298 18.3244 27.4765C18.2853 26.9233 18.0591 26.3998 17.683 25.9922L17.4444 24.799C17.323 24.1821 17.0614 23.6013 16.6797 23.1016C16.2981 22.6019 15.8066 22.1967 15.2434 21.9172L13.4507 21.021V19.1781L15.9516 18.9507C16.0553 18.9413 16.1549 18.9055 16.2409 18.8468C16.3269 18.7881 16.3965 18.7084 16.4431 18.6153L17.0545 17.3925C17.1255 17.2477 17.1364 17.0806 17.0848 16.9278C17.0332 16.7749 16.9233 16.6487 16.779 16.5765C16.6347 16.5043 16.4677 16.4921 16.3145 16.5425C16.1612 16.593 16.0341 16.7019 15.9608 16.8456L15.5017 17.7639L9.47784 18.3113L8.79598 17.2884L8.876 17.2349C9.33117 16.9303 9.67745 16.4886 9.8646 15.9738C10.0518 15.4591 10.07 14.8981 9.91682 14.3723L11.8899 13.3857C12.0239 13.3188 12.1286 13.205 12.1842 13.066L12.9331 11.1936C13.0484 10.9047 13.2253 10.6445 13.4516 10.4311C13.6779 10.2177 13.948 10.0563 14.2432 9.95818L15.6953 9.47411C15.9185 9.40015 16.1489 9.34972 16.3827 9.32363C16.6274 9.60487 16.8472 9.90686 17.0395 10.2262L17.6622 11.2641C18.107 12.0054 18.3419 12.8537 18.3418 13.7182V14.9965C18.3418 15.8073 18.6639 16.5848 19.2372 17.1581C19.8105 17.7314 20.588 18.0535 21.3988 18.0535C22.2096 18.0535 22.9871 17.7314 23.5604 17.1581C24.1337 16.5848 24.4558 15.8073 24.4558 14.9965C24.4557 14.7487 24.4401 14.5011 24.4092 14.2552C24.654 14.5715 24.8882 14.8969 25.1118 15.2315C27.1023 18.2245 28.3605 21.644 28.7845 25.2133C29.1522 28.3075 28.878 31.4443 27.9789 34.4278L27.6656 35.4736L23.2041 35.4831C23.082 34.2292 22.5876 33.0404 21.7845 32.0696C20.9814 31.0988 19.9063 30.3904 18.6974 30.0355ZM8.00239 16.0983C7.9543 16.0261 7.92211 15.9446 7.90794 15.8591C7.89377 15.7735 7.89794 15.686 7.9202 15.6022C7.94245 15.5184 7.98227 15.4403 8.03701 15.3731C8.09175 15.3059 8.16016 15.251 8.2377 15.2123L8.78795 14.9372C8.81703 15.1842 8.77734 15.4345 8.67325 15.6605C8.56916 15.8864 8.40472 16.0793 8.19804 16.2177L8.1181 16.2712L8.00239 16.0983ZM21.6226 11.4245C22.1282 11.8723 22.5331 12.4221 22.8107 13.0377C23.0883 13.6534 23.2322 14.3209 23.233 14.9962C23.2342 15.3371 23.1398 15.6715 22.9606 15.9614C22.7814 16.2514 22.5245 16.4853 22.2191 16.6368C21.9642 16.7634 21.6835 16.8293 21.3988 16.8293C21.1142 16.8293 20.8334 16.7634 20.5785 16.6368C20.2731 16.4854 20.0162 16.2514 19.837 15.9614C19.6578 15.6715 19.5635 15.3371 19.5646 14.9962V13.7182C19.5645 12.6324 19.2695 11.5671 18.7109 10.636L18.0882 9.59807C18.0705 9.56857 18.051 9.54007 18.0329 9.5108C19.0561 9.78883 20.0215 10.2473 20.8836 10.8646C21.1358 11.0446 21.3821 11.2312 21.6226 11.4245ZM33.0153 35.4622L28.9429 35.4708L29.1504 34.7792C30.0975 31.6357 30.3862 28.3306 29.9987 25.0705C29.5521 21.3096 28.2267 17.7066 26.1295 14.553C25.1056 13.0156 23.8514 11.6449 22.4107 10.489C22.263 10.3596 22.1087 10.2367 21.9474 10.1214C21.9287 10.1082 21.9093 10.0959 21.8892 10.0848C21.7917 10.0122 21.6937 9.94007 21.5945 9.8693C20.4216 9.02896 19.0826 8.4489 17.6673 8.16794C16.8818 8.01112 16.069 8.06172 15.309 8.31476L13.8569 8.79875C13.3931 8.9529 12.9686 9.20648 12.613 9.54178C12.2574 9.87707 11.9793 10.286 11.7982 10.7399L11.135 12.3964L7.69065 14.1186C7.45804 14.2349 7.25281 14.3993 7.0886 14.601C6.92439 14.8027 6.80495 15.037 6.73819 15.2883C6.67144 15.5397 6.65891 15.8024 6.70143 16.059C6.74394 16.3155 6.84054 16.5601 6.9848 16.7765L7.43914 17.4579L8.66193 19.2921C8.72297 19.3837 8.80759 19.457 8.90686 19.5045C9.00612 19.552 9.11636 19.5718 9.22594 19.5618L9.77031 19.5123C9.35615 19.8898 9.0154 20.3406 8.76526 20.8421L8.63786 21.0969L8.16448 21.8406C6.92751 23.7815 6.12742 25.9682 5.81967 28.2491C5.51193 30.53 5.7039 32.8505 6.38227 35.0498L6.52641 35.5183L1.22279 35.5297V10.8112L17.1202 1.32277L33.0153 10.7421V35.4622Z" fill="#FB5607"/>
<path d="M14.0621 26.5193C14.5264 26.5193 14.9028 26.1429 14.9028 25.6786C14.9028 25.2143 14.5264 24.8379 14.0621 24.8379C13.5978 24.8379 13.2214 25.2143 13.2214 25.6786C13.2214 26.1429 13.5978 26.5193 14.0621 26.5193Z" fill="#FB5607"/>
<path d="M14.4442 14.0621C14.9085 14.0621 15.2849 13.6858 15.2849 13.2215C15.2849 12.7572 14.9085 12.3808 14.4442 12.3808C13.9799 12.3808 13.6035 12.7572 13.6035 13.2215C13.6035 13.6858 13.9799 14.0621 14.4442 14.0621Z" fill="#FB5607"/>
</svg>
