<svg width="155" height="167" viewBox="0 0 155 167" fill="none" xmlns="http://www.w3.org/2000/svg">
<path d="M154.703 166.422L0.296875 166.751V46.657L77.5 0.578125L154.703 46.3281V166.422Z" fill="#0292C9"/>
<path d="M128.969 166.779L131.03 159.553C135.329 145.222 136.645 130.163 134.897 115.304C132.88 98.1574 126.836 81.7311 117.26 67.366C111.768 59.1281 104.824 51.957 96.7676 46.2023C91.6062 42.5155 85.7213 39.966 79.5016 38.7222C76.3159 38.0852 73.0191 38.2905 69.937 39.3176L63.1459 41.5816C61.3721 42.1728 59.7484 43.1436 58.388 44.4263C57.0275 45.709 55.9629 47.2728 55.2684 49.0088L51.7656 57.7656L34.6848 66.3059C33.9595 66.6685 33.3196 67.1813 32.8076 67.8101C32.2956 68.4389 31.9231 69.1695 31.715 69.9532C31.5069 70.737 31.4679 71.556 31.6005 72.356C31.7331 73.156 32.0343 73.9187 32.4842 74.5934L40.3281 86.3594L57.2152 84.8225V166.751L128.969 166.779Z" fill="#FBB540"/>
<path d="M108.953 67.8521C108.953 70.8855 107.748 73.7947 105.603 75.9396C103.458 78.0846 100.549 79.2896 97.5156 79.2896C94.4822 79.2896 91.573 78.0846 89.4281 75.9396C87.2831 73.7947 86.0781 70.8855 86.0781 67.8521V61.876C86.0777 57.3157 84.8386 52.8411 82.4932 48.9302L79.5802 44.0764C78.3474 42.0225 76.8935 40.1096 75.2447 38.3719C75.4448 38.3648 75.6414 38.3612 75.8416 38.3612C77.0705 38.3604 78.2965 38.4813 79.5016 38.7222C85.7219 39.9655 91.6073 42.5154 96.7686 46.203C97.9767 47.068 99.161 47.9639 100.321 48.8909C103.032 51.2505 105.205 54.164 106.694 57.435C108.184 60.7059 108.954 64.2582 108.953 67.8521Z" fill="#FBB540"/>
<path d="M37.3615 75.9441L34.6094 77.7812L32.4827 74.593C32.0333 73.9181 31.7324 73.1553 31.6001 72.3553C31.4678 71.5552 31.507 70.7362 31.7152 69.9524C31.9234 69.1687 32.2958 68.4382 32.8077 67.8093C33.3196 67.1803 33.9593 66.6674 34.6844 66.3044L40.3102 63.4915L40.3281 63.4844L40.975 65.4216C41.6098 67.3291 41.5999 69.3923 40.947 71.2937C40.294 73.195 39.0342 74.829 37.3615 75.9441Z" fill="#FBB540"/>
<path d="M117.903 105.431L100.375 122.959L82.8467 105.431C82.0581 104.643 81.4326 103.706 81.0058 102.676C80.579 101.646 80.3594 100.542 80.3594 99.4264C80.3594 97.1742 81.2541 95.0142 82.8466 93.4216C84.4392 91.8291 86.5991 90.9344 88.8514 90.9344C89.9665 90.9344 91.0708 91.154 92.1011 91.5808C93.1314 92.0076 94.0675 92.6331 94.856 93.4217L100.375 98.9406L105.894 93.4217C106.682 92.6331 107.619 92.0076 108.649 91.5808C109.679 91.154 110.783 90.9344 111.899 90.9344C114.151 90.9344 116.311 91.8291 117.903 93.4216C119.496 95.0142 120.391 97.1742 120.391 99.4264C120.391 100.542 120.171 101.646 119.744 102.676C119.317 103.706 118.692 104.643 117.903 105.431Z" fill="#E82F3E"/>
<path d="M64.9902 63.4844C67.1616 63.4844 68.9219 61.7241 68.9219 59.5527C68.9219 57.3813 67.1616 55.6211 64.9902 55.6211C62.8188 55.6211 61.0586 57.3813 61.0586 59.5527C61.0586 61.7241 62.8188 63.4844 64.9902 63.4844Z" fill="#D18D28"/>
<path d="M57.2152 84.8243L69.9337 83.668C70.4987 83.6167 71.0411 83.4218 71.5097 83.102C71.9782 82.7822 72.3572 82.3479 72.6108 81.8405C72.8196 81.4234 73.1334 81.0678 73.5213 80.8088C73.9092 80.5498 74.3579 80.3963 74.8232 80.3633C75.2885 80.3304 75.7543 80.4192 76.1748 80.621C76.5954 80.8228 76.9561 81.1306 77.2216 81.5142C77.5171 81.9415 77.6823 82.4453 77.6972 82.9647C77.7121 83.484 77.576 83.9965 77.3055 84.44C76.6635 85.493 75.7897 86.3856 74.7507 87.0499C73.7116 87.7142 72.5346 88.1326 71.3094 88.2734L57.4844 89.8621L57.2152 84.8243Z" fill="#D18D28"/>
<path d="M108.953 67.8521C108.953 70.8855 107.748 73.7947 105.603 75.9396C103.458 78.0846 100.549 79.2896 97.5156 79.2896C94.4822 79.2896 91.573 78.0846 89.4281 75.9396C87.2831 73.7947 86.0781 70.8855 86.0781 67.8521V61.876C86.0777 57.3157 84.8386 52.8411 82.4932 48.9302L79.5802 44.0764C78.3474 42.0225 76.8935 40.1096 75.2447 38.3719C75.4448 38.3648 75.6414 38.3612 75.8416 38.3612C77.0705 38.3604 78.2965 38.4813 79.5016 38.7222C85.7219 39.9655 91.6073 42.5154 96.7686 46.203L98.4163 47.3825C99.0776 47.8543 99.7126 48.3571 100.321 48.8909C103.032 51.2505 105.205 54.164 106.694 57.435C108.184 60.7059 108.954 64.2582 108.953 67.8521Z" fill="#D18D28"/>
<path d="M37.3615 75.9441L34.6094 77.7812L32.4827 74.593C32.0333 73.9181 31.7324 73.1553 31.6001 72.3553C31.4678 71.5552 31.507 70.7362 31.7152 69.9524C31.9234 69.1687 32.2958 68.4382 32.8077 67.8093C33.3196 67.1803 33.9593 66.6674 34.6844 66.3044L40.3102 63.4915L40.3281 63.4844L40.975 65.4216C41.6098 67.3291 41.5999 69.3923 40.947 71.2937C40.294 73.195 39.0342 74.829 37.3615 75.9441Z" fill="#D18D28"/>
<path d="M83.2187 140.688L83.989 140.908C89.5335 142.492 94.411 145.839 97.8835 150.443C101.356 155.046 103.234 160.656 103.234 166.422V166.779H31.75L30.0204 160.801C26.977 150.91 26.1175 140.476 27.5013 130.22C28.8851 119.964 32.4792 110.131 38.0353 101.4L40.3281 97.7969L40.9897 96.4744C42.5092 93.4351 44.845 90.879 47.7354 89.0925C50.6259 87.3059 53.9566 86.3595 57.3546 86.3594H57.4844V97.7969L67.4482 102.779C69.6876 103.899 71.6417 105.515 73.1615 107.505C74.6813 109.494 75.7265 111.805 76.2176 114.26L77.5 120.672L77.7899 120.962C79.2826 122.454 80.1724 124.445 80.2891 126.553C80.4058 128.661 79.7412 130.738 78.4225 132.386L77.5 133.539L83.2187 140.688Z" fill="#FBFDFF"/>
<path d="M64.1024 143.547C61.6277 143.554 59.1762 143.07 56.8899 142.123C54.6036 141.176 52.5278 139.784 50.7827 138.03L49.7437 136.991C49.2074 136.454 48.9062 135.727 48.9062 134.969C48.9062 134.21 49.2074 133.483 49.7437 132.947C50.2799 132.411 51.0072 132.109 51.7656 132.109C52.524 132.109 53.2513 132.411 53.7875 132.947L54.8266 133.986C56.131 135.29 57.696 136.305 59.4193 136.964C61.1427 137.622 62.9855 137.91 64.8276 137.808C66.6696 137.706 68.4694 137.217 70.1095 136.372C71.7495 135.527 73.1929 134.346 74.3454 132.905L75.2672 131.752C75.7411 131.16 76.431 130.78 77.1848 130.697C77.9387 130.613 78.6949 130.832 79.2871 131.306C79.8793 131.78 80.2589 132.47 80.3425 133.224C80.4261 133.978 80.2068 134.734 79.7328 135.326L78.8107 136.479C77.0505 138.689 74.8132 140.473 72.2661 141.697C69.7191 142.921 66.9283 143.554 64.1024 143.547Z" fill="#CBCBCB"/>
<path d="M63.2031 121.744C65.3745 121.744 67.1348 119.984 67.1348 117.812C67.1348 115.641 65.3745 113.881 63.2031 113.881C61.0317 113.881 59.2715 115.641 59.2715 117.812C59.2715 119.984 61.0317 121.744 63.2031 121.744Z" fill="#CBCBCB"/>
</svg>
