<?xml version="1.0" standalone="no"?>
<!DOCTYPE svg PUBLIC "-//W3C//DTD SVG 20010904//EN"
 "http://www.w3.org/TR/2001/REC-SVG-20010904/DTD/svg10.dtd">
<svg version="1.0" xmlns="http://www.w3.org/2000/svg"
 width="668.000000pt" height="668.000000pt" viewBox="0 0 668.000000 668.000000"
 preserveAspectRatio="xMidYMid meet">
<metadata>
Created by potrace 1.14, written by Peter Selinger 2001-2017
</metadata>
<g transform="translate(0.000000,668.000000) scale(0.100000,-0.100000)"
fill="#000000" stroke="none">
<path d="M3306 6637 c-11 -7 -44 -27 -72 -44 -29 -18 -58 -33 -64 -33 -5 0
-10 -4 -10 -9 0 -5 -6 -11 -12 -13 -11 -3 -153 -86 -266 -156 -20 -12 -46 -27
-57 -32 -11 -5 -71 -41 -134 -80 -63 -38 -116 -70 -118 -70 -3 0 -24 -13 -48
-30 -24 -16 -48 -30 -54 -30 -6 0 -11 -4 -11 -10 0 -5 -5 -10 -10 -10 -6 0
-90 -48 -188 -107 -97 -58 -190 -114 -207 -123 -16 -10 -95 -56 -174 -104 -79
-47 -148 -86 -152 -86 -5 0 -9 -4 -9 -10 0 -5 -6 -10 -13 -10 -7 0 -22 -7 -32
-15 -19 -15 -268 -165 -296 -179 -8 -3 -27 -15 -44 -26 -16 -11 -46 -28 -65
-39 -70 -39 -406 -241 -425 -256 -10 -8 -23 -15 -28 -15 -5 0 -32 -15 -60 -33
-111 -71 -137 -87 -142 -87 -2 0 -29 -16 -59 -35 -30 -19 -60 -35 -66 -35 -5
0 -10 -4 -10 -10 0 -5 -4 -10 -9 -10 -4 0 -48 -25 -97 -55 -49 -30 -96 -58
-105 -61 -16 -5 -17 -187 -17 -2410 l0 -2404 666 0 c367 0 1500 -1 2518 -1
1019 -1 1903 2 1965 6 63 4 319 7 570 8 l457 1 0 2403 0 2402 -57 33 c-31 18
-65 37 -76 44 -11 6 -56 32 -100 59 -44 26 -93 55 -110 65 -16 10 -77 46 -135
80 -58 35 -124 74 -148 87 -23 13 -58 35 -78 48 -19 13 -48 30 -64 37 -17 7
-30 16 -30 20 0 5 -4 8 -10 8 -5 0 -61 32 -125 70 -64 39 -118 70 -121 70 -3
0 -24 13 -47 28 -23 16 -49 32 -57 35 -8 4 -28 16 -45 27 -16 10 -61 37 -100
60 -38 22 -88 51 -110 65 -22 14 -47 28 -55 32 -34 18 -166 98 -181 110 -9 7
-18 11 -21 8 -3 -3 -13 4 -23 15 -10 11 -24 20 -30 20 -7 0 -23 8 -36 18 -13
10 -44 30 -69 43 -25 13 -46 27 -48 32 -2 4 -8 7 -13 7 -5 0 -46 23 -90 50
-44 28 -83 50 -86 50 -3 0 -25 14 -50 30 -24 17 -48 30 -52 30 -5 0 -14 7 -21
15 -7 8 -21 15 -30 15 -10 0 -20 4 -22 8 -2 7 -219 140 -263 162 -33 16 -111
65 -116 73 -3 5 -9 8 -13 8 -7 -1 -43 20 -88 50 -15 11 -30 19 -33 19 -5 0
-227 132 -235 140 -12 12 -90 50 -102 49 -7 0 -22 -6 -32 -12z"/>
</g>
</svg>
